<svg xmlns="http://www.w3.org/2000/svg" version="1.1" xmlns:xlink="http://www.w3.org/1999/xlink" xmlns:svgjs="http://svgjs.dev/svgjs" width="1000" height="1000" viewBox="0 0 1000 1000"><rect width="1000" height="1000" fill="#ffffff"></rect><g transform="matrix(0.7,0,0,0.7,149.57575757575756,403.1546962187879)"><svg viewBox="0 0 396 110" data-background-color="#ffffff" preserveAspectRatio="xMidYMid meet" height="277" width="1000" xmlns="http://www.w3.org/2000/svg" xmlns:xlink="http://www.w3.org/1999/xlink"><g id="tight-bounds" transform="matrix(1,0,0,1,0.2400000000000091,-0.059394451091606015)"><svg viewBox="0 0 395.52 110.11878890218321" height="110.11878890218321" width="395.52"><g><svg viewBox="0 0 395.52 110.11878890218321" height="110.11878890218321" width="395.52"><g><svg viewBox="0 0 395.52 110.11878890218321" height="110.11878890218321" width="395.52"><g><svg viewBox="0 0 586.8028703208895 163.37485185088295" height="110.11878890218321" width="395.52"><g transform="matrix(1,0,0,1,191.2828703208895,22.579302969260972)"><svg viewBox="0 0 395.52 118.216245912361" height="118.216245912361" width="395.52"><g id="textblocktransform"><svg viewBox="0 0 395.52 118.216245912361" height="118.216245912361" width="395.52" id="textblock"><g><svg viewBox="0 0 395.52 118.216245912361" height="118.216245912361" width="395.52"><g transform="matrix(1,0,0,1,0,0)"><svg width="395.52" viewBox="1.12 -33.98 149.29999999999998 44.62" height="118.216245912361" data-palette-color="#ffdc00"><path d="M16.46 3.96L16.46 3.96Q16.46 1.76 8.25 1.76L8.25 1.76Q8.11 1.81 8.06 1.81L8.06 1.81Q6.45 2.34 6.1 2.88L6.1 2.88Q5.76 3.32 5.76 4.2L5.76 4.2Q5.76 5.66 7.3 6.67 8.84 7.67 10.74 7.67L10.74 7.67Q13.28 7.67 14.87 6.74 16.46 5.81 16.46 3.96ZM8.06-14.36L8.06-14.36Q8.06-13.09 8.15-12.18 8.25-11.28 8.5-10.33 8.74-9.38 9.33-8.89 9.91-8.4 10.84-8.4 11.77-8.4 12.33-8.76 12.89-9.13 13.11-9.91 13.33-10.69 13.4-11.35 13.48-12.01 13.48-13.09L13.48-13.09Q13.48-16.21 12.89-17.77 12.3-19.34 10.55-19.34L10.55-19.34Q9.67-19.34 9.11-18.9 8.54-18.46 8.35-17.58 8.15-16.7 8.11-16.14 8.06-15.58 8.06-14.6L8.06-14.6Q8.06-14.45 8.06-14.36ZM10.89-21.92L10.89-21.92Q12.65-21.92 15.01-21.29 17.38-20.65 18.8-20.65L18.8-20.65 21.48-20.65Q21.63-20.61 22.02-19.78 22.41-18.95 22.41-18.6L22.41-18.6Q22.41-17.92 22.12-17.92L22.12-17.92 19.24-17.92Q19.04-17.87 19.04-17.77L19.04-17.77Q19.04-17.72 19.41-16.43 19.78-15.14 19.78-14.01L19.78-14.01Q19.78-10.94 17.29-8.4 14.79-5.86 11.04-5.86L11.04-5.86Q9.08-5.86 7.71-6.1L7.71-6.1Q7.13-5.91 6.84-5.44 6.54-4.98 6.54-4.64 6.54-4.3 7.03-4.08 7.52-3.86 8.52-3.74 9.52-3.61 10.28-3.54 11.04-3.47 12.45-3.42 13.87-3.37 14.26-3.37L14.26-3.37Q22.07-2.98 22.12 1.76L22.12 1.76Q22.17 5.32 18.26 7.98 14.36 10.64 9.91 10.64L9.91 10.64Q6.2 10.64 3.66 9.18 1.12 7.71 1.12 5.27L1.12 5.27Q1.12 4.2 2.27 2.98 3.42 1.76 5.13 1.22L5.13 1.22Q3.86 0.68 2.83-0.51 1.81-1.71 1.81-3.13L1.81-3.13Q1.81-3.76 2.15-4.35 2.49-4.93 3.25-5.49 4-6.05 4.32-6.25 4.64-6.45 5.52-6.93L5.52-6.93Q4.1-7.71 2.93-9.69 1.76-11.67 1.76-13.77L1.76-13.77Q1.76-17.77 4.42-19.85 7.08-21.92 10.89-21.92ZM48.68-15.97L48.68-15.97 48.68-6.4Q48.68-3.86 49.17-3.32L49.17-3.32Q49.41-3.08 49.95-2.95 50.49-2.83 51.02-2.83L51.02-2.83 51.51-2.83Q51.71-2.73 51.71-2.44L51.71-2.44Q51.71-1.03 51.41-1.03L51.41-1.03Q50.68-0.98 49.51-0.83 48.34-0.68 47.17-0.51 45.99-0.34 44.94-0.17 43.89 0 43.21 0.1L43.21 0.1 42.53 0.24Q42.23 0.24 42.23-0.63L42.23-0.63 42.23-2.44Q42.23-2.64 42.19-2.69 42.14-2.73 42.04-2.64L42.04-2.64Q41.01-1.56 39.04-0.68 37.06 0.2 34.76 0.2L34.76 0.2Q31.88 0.2 30.15-2.34 28.42-4.88 28.42-8.5L28.42-8.5 28.42-13.23Q28.42-15.97 27.54-16.89L27.54-16.89Q27.19-17.29 26.51-17.53 25.83-17.77 25.34-17.87 24.85-17.97 24.85-18.02L24.85-18.02Q24.85-19.73 25.1-19.73L25.1-19.73Q26.02-19.73 29.34-20.39 32.66-21.04 34.03-21.48L34.03-21.48 34.27-21.58Q34.52-21.63 34.57-21.63L34.57-21.63Q34.81-21.63 35.06-21.31 35.3-21 35.3-20.8L35.3-20.8Q34.76-16.5 34.76-15.92L34.76-15.92 34.76-10.69Q34.76-6.88 35.74-5.35 36.72-3.81 39.01-3.81L39.01-3.81Q40.67-3.81 41.5-4.57 42.33-5.32 42.33-6.25L42.33-6.25 42.33-13.23Q42.33-15.97 41.45-16.89L41.45-16.89Q41.11-17.29 40.43-17.53 39.74-17.77 39.26-17.87 38.77-17.97 38.77-18.02L38.77-18.02Q38.77-19.73 39.01-19.73L39.01-19.73Q39.94-19.73 43.26-20.39 46.58-21.04 47.95-21.48L47.95-21.48Q48-21.48 48.24-21.58L48.24-21.58 48.48-21.63Q48.73-21.63 48.97-21.31 49.22-21 49.22-20.8L49.22-20.8Q48.68-16.5 48.68-15.97ZM62.69-21.92L62.69-21.92Q66.99-21.92 69.04-20.95L69.04-20.95Q69.53-18.7 69.53-14.89L69.53-14.89Q69.53-14.45 68.89-14.45L68.89-14.45Q67.38-14.45 67.28-14.84L67.28-14.84Q66.84-16.89 65.79-18.07 64.74-19.24 62.45-19.24L62.45-19.24Q61.37-19.24 60.69-18.73 60-18.21 60-17.24L60-17.24Q60-16.11 60.98-15.31 61.96-14.5 63.86-13.57L63.86-13.57Q65.18-12.94 65.94-12.5 66.69-12.06 67.94-11.11 69.18-10.16 69.79-8.89 70.41-7.62 70.41-6.05L70.41-6.05Q70.41-2.83 67.94-1.17 65.47 0.49 61.66 0.49L61.66 0.49Q59.96 0.49 57.86-0.05 55.76-0.59 54.83-1.37L54.83-1.37Q54.24-4.74 54.24-7.32L54.24-7.32Q54.44-7.47 54.98-7.47L54.98-7.47Q56.54-7.47 56.59-7.03L56.59-7.03Q57.42-2.2 61.86-2.2L61.86-2.2Q63.03-2.2 63.81-2.73 64.59-3.27 64.59-4.25L64.59-4.25Q64.59-5.47 63.54-6.3 62.5-7.13 59.76-8.5L59.76-8.5Q56.93-9.86 55.56-11.5 54.19-13.13 54.19-15.53L54.19-15.53Q54.19-18.85 56.73-20.39 59.27-21.92 62.69-21.92ZM88.08-33.98L88.08-33.98Q90.23-33.98 91.81-33.5 93.4-33.01 93.79-32.32L93.79-32.32Q93.94-31.4 93.94-30.35 93.94-29.3 93.3-28.44 92.67-27.59 91.5-27.59L91.5-27.59Q90.47-27.59 89.71-28.44 88.96-29.3 88.25-30.13 87.54-30.96 86.61-30.96L86.61-30.96Q85.05-30.96 84.32-28.71 83.59-26.46 83.59-23.19L83.59-23.19 83.59-21.19Q83.59-20.95 83.83-20.95L83.83-20.95 89.25-20.95Q89.49-20.95 89.49-20.61L89.49-20.61Q89.49-19.24 88.91-18.07L88.91-18.07 83.88-18.07Q83.59-18.07 83.59-17.77L83.59-17.77 83.59-7.28Q83.59-4.15 83.93-2.83L83.93-2.83Q84.03-2.49 85.3-2.05 86.56-1.61 87-1.61L87-1.61Q87.15-1.61 87.18-0.81 87.2 0 87.1 0.2L87.1 0.2Q86.56 0.15 84.05-0.02 81.54-0.2 80.41-0.2L80.41-0.2Q79.24-0.2 76.75-0.02 74.26 0.15 73.72 0.2L73.72 0.2Q73.53 0 73.53-0.81 73.53-1.61 73.72-1.61L73.72-1.61Q74.26-1.61 75.53-2.05 76.8-2.49 76.9-2.83L76.9-2.83Q77.24-4.3 77.24-6.54L77.24-6.54 77.24-17.72Q77.24-18.07 76.99-18.07L76.99-18.07 73.72-18.07Q73.58-18.07 73.58-18.36L73.58-18.36Q73.58-18.99 74.19-20 74.8-21 75.63-21L75.63-21 76.99-21Q77.24-21 77.24-21.29L77.24-21.29 77.24-21.63Q77.24-26.71 80.34-30.32 83.44-33.94 88.08-33.98ZM107.41-21.83L107.41-21.83Q109.56-21.83 111.61-20.02L111.61-20.02Q111.61-17.48 111-16.26 110.39-15.04 108.78-15.04L108.78-15.04Q107.8-15.04 106.53-16.16 105.26-17.29 104.29-17.29L104.29-17.29Q102.82-17.29 102.21-15.65 101.6-14.01 101.6-12.16L101.6-12.16 101.6-7.23Q101.6-4.15 101.94-2.83L101.94-2.83Q102.04-2.49 103.24-2.05 104.43-1.61 104.82-1.61L104.82-1.61Q104.97-1.61 104.99-0.81 105.02 0 104.92 0.2L104.92 0.2Q104.34 0.15 101.94-0.02 99.55-0.2 98.43-0.2L98.43-0.2Q97.26-0.2 94.77-0.02 92.28 0.15 91.74 0.2L91.74 0.2Q91.54 0 91.54-0.81 91.54-1.61 91.74-1.61L91.74-1.61Q92.28-1.61 93.54-2.05 94.81-2.49 94.91-2.83L94.91-2.83Q95.25-4.3 95.25-6.54L95.25-6.54 95.25-13.23Q95.25-15.97 94.37-16.89L94.37-16.89Q94.03-17.29 93.35-17.53 92.67-17.77 92.18-17.87 91.69-17.97 91.69-18.02L91.69-18.02Q91.69-19.73 91.93-19.73L91.93-19.73Q92.52-19.73 93.89-20 95.25-20.26 97.45-20.75 99.65-21.24 100.87-21.48L100.87-21.48Q101.36-21.63 101.41-21.63L101.41-21.63Q101.65-21.63 101.89-21.31 102.14-21 102.14-20.8L102.14-20.8Q102.04-20.21 101.99-19.53 101.94-18.85 101.89-18.65L101.89-18.65Q104.29-21.83 107.41-21.83ZM124.55-19.14L124.55-19.14Q122.64-19.14 121.76-17.31 120.89-15.48 120.89-13.72L120.89-13.72Q120.89-13.43 121.23-13.43L121.23-13.43 127.43-13.43Q128.11-13.43 128.11-14.36L128.11-14.36Q128.11-16.21 127.11-17.68 126.11-19.14 124.55-19.14ZM124.79-21.83L124.79-21.83Q129.19-21.83 131.85-18.77 134.51-15.72 134.51-12.55L134.51-12.55Q134.51-11.43 134.05-11.08 133.58-10.74 132.21-10.74L132.21-10.74 121.18-10.74Q120.89-10.74 120.89-10.4L120.89-10.4Q120.89-7.76 122.38-5.66 123.86-3.56 126.65-3.56L126.65-3.56Q128.26-3.56 129.72-4.03 131.19-4.49 131.77-4.86 132.36-5.22 133.34-5.96L133.34-5.96Q133.78-5.76 133.78-5.03L133.78-5.03Q133.78-4.44 133.58-4.05L133.58-4.05Q133.09-2.88 130.65-1.27 128.21 0.34 125.18 0.34L125.18 0.34Q120.69 0.34 117.44-2.93 114.2-6.2 114.2-10.79L114.2-10.79Q114.2-15.48 117.13-18.65 120.06-21.83 124.79-21.83ZM140.66-27.51Q139.58-28.56 139.58-30.08 139.58-31.59 140.66-32.64 141.73-33.69 143.22-33.69 144.71-33.69 145.76-32.64 146.81-31.59 146.81-30.08 146.81-28.56 145.76-27.51 144.71-26.46 143.22-26.46 141.73-26.46 140.66-27.51ZM146.81-15.92L146.81-7.28Q146.81-4.15 147.15-2.83L147.15-2.83Q147.25-2.49 148.54-2.05 149.84-1.61 150.23-1.61L150.23-1.61Q150.42-1.61 150.42-0.81 150.42 0 150.33 0.2L150.33 0.2Q149.84 0.15 147.3-0.02 144.76-0.2 143.64-0.2L143.64-0.2Q142.47-0.2 140-0.02 137.53 0.15 136.95 0.2L136.95 0.2Q136.8 0 136.8-0.81 136.8-1.61 136.95-1.61L136.95-1.61Q137.53-1.61 138.78-2.05 140.02-2.49 140.12-2.83L140.12-2.83Q140.46-4.3 140.46-6.54L140.46-6.54 140.46-13.23Q140.46-15.97 139.58-16.89L139.58-16.89Q139.24-17.29 138.58-17.53 137.92-17.77 137.41-17.87 136.9-17.97 136.9-18.02L136.9-18.02Q136.9-19.73 137.14-19.73L137.14-19.73Q138.12-19.73 141.42-20.39 144.71-21.04 146.08-21.48L146.08-21.48Q146.13-21.48 146.37-21.56 146.62-21.63 146.62-21.63L146.62-21.63Q146.91-21.63 147.13-21.31 147.35-21 147.35-20.8L147.35-20.8Q147.3-20.41 147.15-19.34 147.01-18.26 146.91-17.46 146.81-16.65 146.81-15.92L146.81-15.92Z" opacity="1" transform="matrix(1,0,0,1,0,0)" fill="#000000" class="undefined-text-0" data-fill-palette-color="primary" id="text-0"></path></svg></g></svg></g></svg></g></svg></g><g><svg viewBox="0 0 163.37485185088295 163.37485185088295" height="163.37485185088295" width="163.37485185088295"><g><svg xmlns="http://www.w3.org/2000/svg" xmlns:xlink="http://www.w3.org/1999/xlink" version="1.1" x="0" y="0" viewBox="10.6 10.6 78.80000000000001 78.80000000000001" style="enable-background:new 0 0 100 100;" xml:space="preserve" height="163.37485185088295" width="163.37485185088295" class="icon-icon-0" data-fill-palette-color="accent" id="icon-0"><path d="M77.8 22.2L50 10.6 22.2 22.2 10.6 50l11.5 27.8L50 89.4l27.8-11.5L89.4 50 77.8 22.2zM86.9 48.5l-12.5-3.4c0-0.2 0-0.4 0-0.6 0-2-1.1-3.8-2.7-4.8l5.6-14.7L86.9 48.5zM45.8 60.3c-0.3-2.3-1.6-4.2-3.5-5.3l5-12.1c0.9 0.3 1.8 0.4 2.7 0.4s1.9-0.1 2.7-0.4l6.2 15c-0.8 0.6-1.4 1.4-1.6 2.4H45.8zM61.2 57.2c-0.2 0-0.4 0-0.7 0.1l-6.2-15c1.3-0.7 2.3-1.7 3.1-2.9l6.2 3.4c-0.2 0.6-0.3 1.2-0.3 1.8 0 1.9 1 3.6 2.4 4.6L62 57.3C61.7 57.2 61.5 57.2 61.2 57.2zM38.7 54c-0.8 0-1.6 0.1-2.3 0.4l-5.6-11.6c0.9-0.7 1.5-1.8 1.5-3.1 0 0 0 0 0-0.1l9.3-2.3c0.7 2.1 2.2 3.9 4.2 4.9l-5 12C40.1 54.1 39.4 54 38.7 54zM68.8 39.1c-1.8 0-3.3 0.8-4.3 2.1l-6.2-3.4c0.5-1.1 0.7-2.3 0.7-3.5 0-1-0.2-1.9-0.5-2.8l17-7.1L70 39.2C69.6 39.1 69.2 39.1 68.8 39.1zM41.1 35.6l-9.3 2.3c-0.7-1.3-2-2.2-3.6-2.2-0.1 0-0.2 0-0.3 0l-3.6-11.3 17.1 7.1c-0.3 0.9-0.5 1.8-0.5 2.8C41 34.8 41 35.2 41.1 35.6zM25.4 42.5c0.7 0.7 1.7 1.2 2.8 1.2 0.3 0 0.6 0 0.9-0.1l5.6 11.6c-1 0.6-1.8 1.5-2.4 2.5l-18.7-7.7L25.4 42.5zM63.6 58l3.8-8.1c0.5 0.1 1 0.2 1.5 0.2 2.2 0 4.2-1.3 5-3.2l12.1 3.2L64.5 59C64.3 58.6 63.9 58.3 63.6 58zM76.7 24L76.7 24 76.7 24 76.7 24zM57.8 29.9c-1.4-2.5-4-4.2-6.9-4.5V12.9l24 9.9L57.8 29.9zM49.1 12.9v12.5c-3 0.3-5.5 2-6.9 4.5l-17.1-7.1L49.1 12.9zM22.8 25.2l3.5 11c-1.2 0.7-2 2-2 3.4 0 0.5 0.1 0.9 0.3 1.4l-11.2 7.1L22.8 25.2zM12.7 49.5L12.7 49.5 12.7 49.5 12.7 49.5zM13.2 51.6l18.5 7.7c-0.2 0.6-0.3 1.2-0.3 1.9 0 1.7 0.6 3.2 1.6 4.5l-9.9 10L13.2 51.6zM23.5 76.5L23.5 76.5 23.5 76.5 23.5 76.5zM24.4 76.9l9.9-10c1.2 0.9 2.7 1.5 4.4 1.5 0.7 0 1.4-0.1 2-0.3l7.7 18.7L24.4 76.9zM42.3 67.4c1.9-1.1 3.3-3.1 3.5-5.4h11.5c0.2 1 0.8 1.9 1.7 2.4L50 86.1 42.3 67.4zM60.6 65.1c0.2 0 0.4 0.1 0.6 0.1 0.8 0 1.5-0.2 2.1-0.6l12.3 12.3-24 9.9L60.6 65.1zM76.9 75.6L64.5 63.3c0.4-0.6 0.6-1.3 0.6-2.1 0-0.2 0-0.4-0.1-0.6l21.7-9L76.9 75.6zM87.3 49.5L87.3 49.5 87.3 49.5 87.3 49.5z" fill="#000000" data-fill-palette-color="accent"></path></svg></g></svg></g></svg></g></svg></g></svg></g><defs></defs></svg><rect width="395.52" height="110.11878890218321" fill="none" stroke="none" visibility="hidden"></rect></g></svg></g></svg>